ffplay version 8.0.1-essentials_build-www.gyan.dev Copyright (c) 2003-2025 the FFmpeg developers
  built with gcc 15.2.0 (Rev8, Built by MSYS2 project)
  configuration: --enable-gpl --enable-version3 --enable-static --disable-w32threads --disable-autodetect --enable-fontconfig --enable-iconv --enable-gnutls --enable-libxml2 --enable-gmp --enable-bzlib --enable-lzma --enable-zlib --enable-libsrt --enable-libssh --enable-libzmq --enable-avisynth --enable-sdl2 --enable-libwebp --enable-libx264 --enable-libx265 --enable-libxvid --enable-libaom --enable-libopenjpeg --enable-libvpx --enable-mediafoundation --enable-libass --enable-libfreetype --enable-libfribidi --enable-libharfbuzz --enable-libvidstab --enable-libvmaf --enable-libzimg --enable-amf --enable-cuda-llvm --enable-cuvid --enable-dxva2 --enable-d3d11va --enable-d3d12va --enable-ffnvcodec --enable-libvpl --enable-nvdec --enable-nvenc --enable-vaapi --enable-openal --enable-libgme --enable-libopenmpt --enable-libopencore-amrwb --enable-libmp3lame --enable-libtheora --enable-libvo-amrwbenc --enable-libgsm --enable-libopencore-amrnb --enable-libopus --enable-libspeex --enable-libvorbis --enable-librubberband
  libavutil      60.  8.100 / 60.  8.100
  libavcodec     62. 11.100 / 62. 11.100
  libavformat    62.  3.100 / 62.  3.100
  libavdevice    62.  1.100 / 62.  1.100
  libavfilter    11.  4.100 / 11.  4.100
  libswscale      9.  1.100 /  9.  1.100
  libswresample   6.  1.100 /  6.  1.100
    nan    :  0.000 fd=   0 aq=    0KB vq=    0KB sq=    0B [mp3 @ 0000019323fad440] Estimating duration from bitrate, this may be inaccurate
Input #0, mp3, from 'c:\Users\zfj-AUTHOR\Desktop\VSC\Cluster-20251215T135848Z-1-001\Cluster\controller\resource\tts_temp\tts_e88c787d3e3e441f8dd9d439fc942fbd.mp3':
  Duration: 00:00:05.18, start: 0.000000, bitrate: 48 kb/s
  Stream #0:0: Audio: mp3 (mp3float), 24000 Hz, mono, fltp, 48 kb/s
    nan M-A:    nan fd=   0 aq=    5KB vq=    0KB sq=    0B   -0.03 M-A: -0.000 fd=   0 aq=    6KB vq=    0KB sq=    0B   -0.00 M-A:  0.000 fd=   0 aq=    6KB vq=    0KB sq=    0B    0.05 M-A:  0.000 fd=   0 aq=    6KB vq=    0KB sq=    0B    0.08 M-A:  0.000 fd=   0 aq=    6KB vq=    0KB sq=    0B    0.10 M-A: -0.000 fd=   0 aq=    6KB vq=    0KB sq=    0B    0.14 M-A:  0.000 fd=   0 aq=    6KB vq=    0KB sq=    0B    0.17 M-A:  0.000 fd=   0 aq=    6KB vq=    0KB sq=    0B    0.20 M-A:  0.000 fd=   0 aq=    6KB vq=    0KB sq=    0B    0.24 M-A:  0.000 fd=   0 aq=    6KB vq=    0KB sq=    0B    0.26 M-A:  0.000 fd=   0 aq=    6KB vq=    0KB sq=    0B    0.29 M-A:  0.000 fd=   0 aq=    6KB vq=    0KB sq=    0B    0.33 M-A:  0.000 fd=   0 aq=    6KB vq=    0KB sq=    0B    0.37 M-A:  0.000 fd=   0 aq=    6KB vq=    0KB sq=    0B    0.40 M-A:  0.000 fd=   0 aq=    6KB vq=    0KB sq=    0B    0.43 M-A:  0.000 fd=   0 aq=    6KB vq=    0KB sq=    0B    0.46 M-A:  0.000 fd=   0 aq=    6KB vq=    0KB sq=    0B    0.50 M-A:  0.000 fd=   0 aq=    6KB vq=    0KB sq=    0B    0.53 M-A:  0.000 fd=   0 aq=    6KB vq=    0KB sq=    0B    0.56 M-A: -0.000 fd=   0 aq=    6KB vq=    0KB sq=    0B    0.59 M-A:  0.000 fd=   0 aq=    6KB vq=    0KB sq=    0B    0.62 M-A:  0.000 fd=   0 aq=    6KB vq=    0KB sq=    0B    0.65 M-A:  0.000 fd=   0 aq=    6KB vq=    0KB sq=    0B    0.69 M-A:  0.000 fd=   0 aq=    6KB vq=    0KB sq=    0B    0.72 M-A:  0.000 fd=   0 aq=    6KB vq=    0KB sq=    0B    0.74 M-A:  0.000 fd=   0 aq=    6KB vq=    0KB sq=    0B    0.78 M-A:  0.000 fd=   0 aq=    6KB vq=    0KB sq=    0B    0.81 M-A:  0.000 fd=   0 aq=    6KB vq=    0KB sq=    0B    0.84 M-A:  0.000 fd=   0 aq=    6KB vq=    0KB sq=    0B    0.88 M-A:  0.000 fd=   0 aq=    6KB vq=    0KB sq=    0B    0.90 M-A: -0.000 fd=   0 aq=    6KB vq=    0KB sq=    0B    0.93 M-A:  0.000 fd=   0 aq=    6KB vq=    0KB sq=    0B    0.97 M-A:  0.000 fd=   0 aq=    6KB vq=    0KB sq=    0B    1.00 M-A:  0.000 fd=   0 aq=    6KB vq=    0KB sq=    0B    1.03 M-A:  0.000 fd=   0 aq=    6KB vq=    0KB sq=    0B    1.07 M-A:  0.000 fd=   0 aq=    6KB vq=    0KB sq=    0B    1.09 M-A:  0.000 fd=   0 aq=    6KB vq=    0KB sq=    0B    1.14 M-A:  0.000 fd=   0 aq=    6KB vq=    0KB sq=    0B    1.17 M-A:  0.000 fd=   0 aq=    6KB vq=    0KB sq=    0B    1.20 M-A:  0.000 fd=   0 aq=    6KB vq=    0KB sq=    0B    1.23 M-A:  0.000 fd=   0 aq=    6KB vq=    0KB sq=    0B    1.26 M-A: -0.000 fd=   0 aq=    6KB vq=    0KB sq=    0B    1.29 M-A: -0.000 fd=   0 aq=    6KB vq=    0KB sq=    0B    1.33 M-A:  0.000 fd=   0 aq=    6KB vq=    0KB sq=    0B    1.36 M-A:  0.000 fd=   0 aq=    6KB vq=    0KB sq=    0B    1.38 M-A:  0.000 fd=   0 aq=    6KB vq=    0KB sq=    0B    1.42 M-A:  0.000 fd=   0 aq=    6KB vq=    0KB sq=    0B    1.45 M-A:  0.000 fd=   0 aq=    6KB vq=    0KB sq=    0B    1.48 M-A: -0.000 fd=   0 aq=    6KB vq=    0KB sq=    0B    1.52 M-A:  0.000 fd=   0 aq=    6KB vq=    0KB sq=    0B    1.54 M-A:  0.000 fd=   0 aq=    6KB vq=    0KB sq=    0B    1.59 M-A:  0.000 fd=   0 aq=    6KB vq=    0KB sq=    0B    1.62 M-A: -0.000 fd=   0 aq=    6KB vq=    0KB sq=    0B    1.65 M-A: -0.000 fd=   0 aq=    6KB vq=    0KB sq=    0B    1.69 M-A:  0.000 fd=   0 aq=    6KB vq=    0KB sq=    0B    1.71 M-A:  0.000 fd=   0 aq=    6KB vq=    0KB sq=    0B    1.74 M-A:  0.000 fd=   0 aq=    6KB vq=    0KB sq=    0B    1.78 M-A:  0.000 fd=   0 aq=    6KB vq=    0KB sq=    0B    1.81 M-A:  0.000 fd=   0 aq=    6KB vq=    0KB sq=    0B    1.84 M-A:  0.000 fd=   0 aq=    6KB vq=    0KB sq=    0B    1.88 M-A:  0.000 fd=   0 aq=    6KB vq=    0KB sq=    0B    1.91 M-A:  0.000 fd=   0 aq=    6KB vq=    0KB sq=    0B    1.95 M-A:  0.000 fd=   0 aq=    6KB vq=    0KB sq=    0B    1.98 M-A:  0.000 fd=   0 aq=    6KB vq=    0KB sq=    0B    2.01 M-A:  0.000 fd=   0 aq=    6KB vq=    0KB sq=    0B    2.03 M-A:  0.000 fd=   0 aq=    6KB vq=    0KB sq=    0B    2.07 M-A: -0.000 fd=   0 aq=    6KB vq=    0KB sq=    0B    2.10 M-A:  0.000 fd=   0 aq=    6KB vq=    0KB sq=    0B    2.14 M-A: -0.000 fd=   0 aq=    6KB vq=    0KB sq=    0B    2.17 M-A:  0.000 fd=   0 aq=    6KB vq=    0KB sq=    0B    2.19 M-A: -0.000 fd=   0 aq=    6KB vq=    0KB sq=    0B    2.23 M-A:  0.000 fd=   0 aq=    6KB vq=    0KB sq=    0B    2.26 M-A:  0.000 fd=   0 aq=    6KB vq=    0KB sq=    0B    2.29 M-A:  0.000 fd=   0 aq=    6KB vq=    0KB sq=    0B    2.33 M-A:  0.000 fd=   0 aq=    6KB vq=    0KB sq=    0B    2.35 M-A:  0.000 fd=   0 aq=    6KB vq=    0KB sq=    0B    2.38 M-A: -0.000 fd=   0 aq=    6KB vq=    0KB sq=    0B    2.41 M-A:  0.000 fd=   0 aq=    6KB vq=    0KB sq=    0B    2.45 M-A: -0.000 fd=   0 aq=    6KB vq=    0KB sq=    0B    2.48 M-A:  0.000 fd=   0 aq=    6KB vq=    0KB sq=    0B    2.50 M-A:  0.000 fd=   0 aq=    6KB vq=    0KB sq=    0B    2.54 M-A:  0.000 fd=   0 aq=    6KB vq=    0KB sq=    0B    2.58 M-A:  0.000 fd=   0 aq=    6KB vq=    0KB sq=    0B    2.61 M-A:  0.000 fd=   0 aq=    6KB vq=    0KB sq=    0B    2.64 M-A:  0.000 fd=   0 aq=    6KB vq=    0KB sq=    0B    2.68 M-A:  0.000 fd=   0 aq=    6KB vq=    0KB sq=    0B    2.72 M-A:  0.000 fd=   0 aq=    6KB vq=    0KB sq=    0B    2.75 M-A:  0.000 fd=   0 aq=    6KB vq=    0KB sq=    0B    2.79 M-A:  0.000 fd=   0 aq=    6KB vq=    0KB sq=    0B    2.82 M-A:  0.000 fd=   0 aq=    6KB vq=    0KB sq=    0B    2.85 M-A:  0.000 fd=   0 aq=    6KB vq=    0KB sq=    0B    2.88 M-A:  0.000 fd=   0 aq=    6KB vq=    0KB sq=    0B    2.92 M-A:  0.000 fd=   0 aq=    6KB vq=    0KB sq=    0B    2.95 M-A:  0.000 fd=   0 aq=    6KB vq=    0KB sq=    0B    2.98 M-A:  0.000 fd=   0 aq=    6KB vq=    0KB sq=    0B    3.01 M-A:  0.000 fd=   0 aq=    6KB vq=    0KB sq=    0B    3.04 M-A:  0.000 fd=   0 aq=    6KB vq=    0KB sq=    0B    3.08 M-A:  0.000 fd=   0 aq=    6KB vq=    0KB sq=    0B    3.11 M-A: -0.000 fd=   0 aq=    6KB vq=    0KB sq=    0B    3.13 M-A:  0.000 fd=   0 aq=    6KB vq=    0KB sq=    0B    3.17 M-A:  0.000 fd=   0 aq=    6KB vq=    0KB sq=    0B    3.20 M-A: -0.000 fd=   0 aq=    6KB vq=    0KB sq=    0B    3.23 M-A: -0.000 fd=   0 aq=    6KB vq=    0KB sq=    0B    3.27 M-A:  0.000 fd=   0 aq=    6KB vq=    0KB sq=    0B    3.30 M-A:  0.000 fd=   0 aq=    6KB vq=    0KB sq=    0B    3.34 M-A:  0.000 fd=   0 aq=    6KB vq=    0KB sq=    0B    3.37 M-A:  0.000 fd=   0 aq=    6KB vq=    0KB sq=    0B    3.40 M-A:  0.000 fd=   0 aq=    6KB vq=    0KB sq=    0B    3.44 M-A:  0.000 fd=   0 aq=    6KB vq=    0KB sq=    0B    3.46 M-A:  0.000 fd=   0 aq=    6KB vq=    0KB sq=    0B    3.51 M-A:  0.000 fd=   0 aq=    6KB vq=    0KB sq=    0B    3.54 M-A:  0.000 fd=   0 aq=    6KB vq=    0KB sq=    0B    3.58 M-A:  0.000 fd=   0 aq=    6KB vq=    0KB sq=    0B    3.61 M-A:  0.000 fd=   0 aq=    6KB vq=    0KB sq=    0B    3.63 M-A:  0.000 fd=   0 aq=    6KB vq=    0KB sq=    0B    3.67 M-A:  0.000 fd=   0 aq=    6KB vq=    0KB sq=    0B    3.70 M-A:  0.000 fd=   0 aq=    6KB vq=    0KB sq=    0B    3.74 M-A:  0.000 fd=   0 aq=    6KB vq=    0KB sq=    0B    3.76 M-A:  0.000 fd=   0 aq=    6KB vq=    0KB sq=    0B    3.81 M-A:  0.000 fd=   0 aq=    6KB vq=    0KB sq=    0B    3.84 M-A:  0.000 fd=   0 aq=    6KB vq=    0KB sq=    0B    3.87 M-A:  0.000 fd=   0 aq=    6KB vq=    0KB sq=    0B    3.91 M-A: -0.000 fd=   0 aq=    6KB vq=    0KB sq=    0B    3.93 M-A: -0.000 fd=   0 aq=    6KB vq=    0KB sq=    0B    3.96 M-A:  0.000 fd=   0 aq=    6KB vq=    0KB sq=    0B    4.00 M-A:  0.000 fd=   0 aq=    5KB vq=    0KB sq=    0B    4.03 M-A:  0.000 fd=   0 aq=    5KB vq=    0KB sq=    0B    4.07 M-A:  0.000 fd=   0 aq=    5KB vq=    0KB sq=    0B    4.10 M-A:  0.000 fd=   0 aq=    5KB vq=    0KB sq=    0B    4.13 M-A:  0.000 fd=   0 aq=    5KB vq=    0KB sq=    0B    4.17 M-A:  0.000 fd=   0 aq=    4KB vq=    0KB sq=    0B    4.20 M-A:  0.000 fd=   0 aq=    4KB vq=    0KB sq=    0B    4.24 M-A:  0.000 fd=   0 aq=    4KB vq=    0KB sq=    0B    4.27 M-A:  0.000 fd=   0 aq=    4KB vq=    0KB sq=    0B    4.29 M-A:  0.000 fd=   0 aq=    3KB vq=    0KB sq=    0B    4.33 M-A:  0.000 fd=   0 aq=    3KB vq=    0KB sq=    0B    4.36 M-A: -0.000 fd=   0 aq=    3KB vq=    0KB sq=    0B    4.39 M-A:  0.000 fd=   0 aq=    3KB vq=    0KB sq=    0B    4.41 M-A:  0.000 fd=   0 aq=    3KB vq=    0KB sq=    0B    4.45 M-A:  0.000 fd=   0 aq=    2KB vq=    0KB sq=    0B    4.48 M-A:  0.000 fd=   0 aq=    2KB vq=    0KB sq=    0B    4.51 M-A: -0.000 fd=   0 aq=    2KB vq=    0KB sq=    0B    4.55 M-A:  0.000 fd=   0 aq=    2KB vq=    0KB sq=    0B    4.57 M-A:  0.000 fd=   0 aq=    2KB vq=    0KB sq=    0B    4.60 M-A:  0.000 fd=   0 aq=    2KB vq=    0KB sq=    0B    4.64 M-A:  0.000 fd=   0 aq=    1KB vq=    0KB sq=    0B    4.67 M-A: -0.000 fd=   0 aq=    1KB vq=    0KB sq=    0B    4.71 M-A:  0.000 fd=   0 aq=    1KB vq=    0KB sq=    0B    4.74 M-A:  0.000 fd=   0 aq=    1KB vq=    0KB sq=    0B    4.76 M-A:  0.000 fd=   0 aq=    0KB vq=    0KB sq=    0B    4.81 M-A:  0.000 fd=   0 aq=    0KB vq=    0KB sq=    0B    4.84 M-A:  0.000 fd=   0 aq=    0KB vq=    0KB sq=    0B    4.88 M-A:  0.000 fd=   0 aq=    0KB vq=    0KB sq=    0B    4.91 M-A:  0.000 fd=   0 aq=    0KB vq=    0KB sq=    0B    4.93 M-A:  0.000 fd=   0 aq=    0KB vq=    0KB sq=    0B    4.97 M-A: -0.000 fd=   0 aq=    0KB vq=    0KB sq=    0B    5.00 M-A:  0.000 fd=   0 aq=    0KB vq=    0KB sq=    0B    5.03 M-A:  0.000 fd=   0 aq=    0KB vq=    0KB sq=    0B    5.05 M-A:  0.000 fd=   0 aq=    0KB vq=    0KB sq=    0B    5.09 M-A: -0.000 fd=   0 aq=    0KB vq=    0KB sq=    0B 
ffplay version 8.0.1-essentials_build-www.gyan.dev Copyright (c) 2003-2025 the FFmpeg developers
  built with gcc 15.2.0 (Rev8, Built by MSYS2 project)
  configuration: --enable-gpl --enable-version3 --enable-static --disable-w32threads --disable-autodetect --enable-fontconfig --enable-iconv --enable-gnutls --enable-libxml2 --enable-gmp --enable-bzlib --enable-lzma --enable-zlib --enable-libsrt --enable-libssh --enable-libzmq --enable-avisynth --enable-sdl2 --enable-libwebp --enable-libx264 --enable-libx265 --enable-libxvid --enable-libaom --enable-libopenjpeg --enable-libvpx --enable-mediafoundation --enable-libass --enable-libfreetype --enable-libfribidi --enable-libharfbuzz --enable-libvidstab --enable-libvmaf --enable-libzimg --enable-amf --enable-cuda-llvm --enable-cuvid --enable-dxva2 --enable-d3d11va --enable-d3d12va --enable-ffnvcodec --enable-libvpl --enable-nvdec --enable-nvenc --enable-vaapi --enable-openal --enable-libgme --enable-libopenmpt --enable-libopencore-amrwb --enable-libmp3lame --enable-libtheora --enable-libvo-amrwbenc --enable-libgsm --enable-libopencore-amrnb --enable-libopus --enable-libspeex --enable-libvorbis --enable-librubberband
  libavutil      60.  8.100 / 60.  8.100
  libavcodec     62. 11.100 / 62. 11.100
  libavformat    62.  3.100 / 62.  3.100
  libavdevice    62.  1.100 / 62.  1.100
  libavfilter    11.  4.100 / 11.  4.100
  libswscale      9.  1.100 /  9.  1.100
  libswresample   6.  1.100 /  6.  1.100
    nan    :  0.000 fd=   0 aq=    0KB vq=    0KB sq=    0B [mp3 @ 000002a26df7d440] Estimating duration from bitrate, this may be inaccurate
Input #0, mp3, from 'c:\Users\zfj-AUTHOR\Desktop\VSC\Cluster-20251215T135848Z-1-001\Cluster\controller\resource\tts_temp\tts_d9efb242004c4d4e9bb743324df63711.mp3':
  Duration: 00:00:02.28, start: 0.000000, bitrate: 48 kb/s
  Stream #0:0: Audio: mp3 (mp3float), 24000 Hz, mono, fltp, 48 kb/s
    nan M-A:    nan fd=   0 aq=    6KB vq=    0KB sq=    0B   -0.03 M-A:  0.000 fd=   0 aq=    6KB vq=    0KB sq=    0B   -0.00 M-A:  0.000 fd=   0 aq=    6KB vq=    0KB sq=    0B    0.03 M-A: -0.000 fd=   0 aq=    6KB vq=    0KB sq=    0B    0.07 M-A:  0.000 fd=   0 aq=    6KB vq=    0KB sq=    0B    0.09 M-A:  0.000 fd=   0 aq=    6KB vq=    0KB sq=    0B    0.12 M-A:  0.000 fd=   0 aq=    6KB vq=    0KB sq=    0B    0.15 M-A:  0.000 fd=   0 aq=    6KB vq=    0KB sq=    0B    0.19 M-A:  0.000 fd=   0 aq=    6KB vq=    0KB sq=    0B    0.22 M-A: -0.000 fd=   0 aq=    6KB vq=    0KB sq=    0B    0.25 M-A:  0.000 fd=   0 aq=    6KB vq=    0KB sq=    0B    0.28 M-A:  0.000 fd=   0 aq=    6KB vq=    0KB sq=    0B    0.31 M-A:  0.000 fd=   0 aq=    6KB vq=    0KB sq=    0B    0.34 M-A:  0.000 fd=   0 aq=    6KB vq=    0KB sq=    0B    0.38 M-A:  0.000 fd=   0 aq=    6KB vq=    0KB sq=    0B    0.41 M-A:  0.000 fd=   0 aq=    6KB vq=    0KB sq=    0B    0.43 M-A: -0.000 fd=   0 aq=    6KB vq=    0KB sq=    0B    0.49 M-A:  0.000 fd=   0 aq=    6KB vq=    0KB sq=    0B    0.52 M-A: -0.000 fd=   0 aq=    6KB vq=    0KB sq=    0B    0.55 M-A:  0.000 fd=   0 aq=    6KB vq=    0KB sq=    0B    0.57 M-A:  0.000 fd=   0 aq=    6KB vq=    0KB sq=    0B    0.61 M-A:  0.000 fd=   0 aq=    6KB vq=    0KB sq=    0B    0.64 M-A:  0.000 fd=   0 aq=    6KB vq=    0KB sq=    0B    0.67 M-A:  0.000 fd=   0 aq=    6KB vq=    0KB sq=    0B    0.71 M-A:  0.000 fd=   0 aq=    6KB vq=    0KB sq=    0B    0.73 M-A:  0.000 fd=   0 aq=    6KB vq=    0KB sq=    0B    0.78 M-A:  0.000 fd=   0 aq=    6KB vq=    0KB sq=    0B    0.83 M-A: -0.000 fd=   0 aq=    6KB vq=    0KB sq=    0B    0.87 M-A:  0.000 fd=   0 aq=    6KB vq=    0KB sq=    0B    0.90 M-A:  0.000 fd=   0 aq=    6KB vq=    0KB sq=    0B    0.92 M-A:  0.000 fd=   0 aq=    6KB vq=    0KB sq=    0B    0.96 M-A:  0.000 fd=   0 aq=    6KB vq=    0KB sq=    0B    0.99 M-A:  0.000 fd=   0 aq=    6KB vq=    0KB sq=    0B    1.02 M-A:  0.000 fd=   0 aq=    6KB vq=    0KB sq=    0B    1.05 M-A:  0.000 fd=   0 aq=    6KB vq=    0KB sq=    0B    1.09 M-A:  0.000 fd=   0 aq=    5KB vq=    0KB sq=    0B    1.12 M-A:  0.000 fd=   0 aq=    5KB vq=    0KB sq=    0B    1.16 M-A: -0.000 fd=   0 aq=    5KB vq=    0KB sq=    0B    1.19 M-A:  0.000 fd=   0 aq=    5KB vq=    0KB sq=    0B    1.21 M-A:  0.000 fd=   0 aq=    5KB vq=    0KB sq=    0B    1.25 M-A:  0.000 fd=   0 aq=    4KB vq=    0KB sq=    0B    1.28 M-A: -0.000 fd=   0 aq=    4KB vq=    0KB sq=    0B    1.31 M-A: -0.000 fd=   0 aq=    4KB vq=    0KB sq=    0B    1.35 M-A:  0.000 fd=   0 aq=    4KB vq=    0KB sq=    0B    1.37 M-A:  0.000 fd=   0 aq=    3KB vq=    0KB sq=    0B    1.40 M-A:  0.000 fd=   0 aq=    3KB vq=    0KB sq=    0B    1.44 M-A:  0.000 fd=   0 aq=    3KB vq=    0KB sq=    0B    1.47 M-A:  0.000 fd=   0 aq=    3KB vq=    0KB sq=    0B    1.50 M-A:  0.000 fd=   0 aq=    3KB vq=    0KB sq=    0B    1.53 M-A:  0.000 fd=   0 aq=    3KB vq=    0KB sq=    0B    1.56 M-A: -0.000 fd=   0 aq=    2KB vq=    0KB sq=    0B    1.59 M-A: -0.000 fd=   0 aq=    2KB vq=    0KB sq=    0B    1.63 M-A:  0.000 fd=   0 aq=    2KB vq=    0KB sq=    0B    1.66 M-A: -0.000 fd=   0 aq=    2KB vq=    0KB sq=    0B    1.69 M-A:  0.000 fd=   0 aq=    2KB vq=    0KB sq=    0B    1.71 M-A: -0.000 fd=   0 aq=    1KB vq=    0KB sq=    0B    1.74 M-A:  0.000 fd=   0 aq=    1KB vq=    0KB sq=    0B    1.78 M-A:  0.000 fd=   0 aq=    1KB vq=    0KB sq=    0B    1.81 M-A:  0.000 fd=   0 aq=    1KB vq=    0KB sq=    0B    1.84 M-A:  0.000 fd=   0 aq=    0KB vq=    0KB sq=    0B    1.87 M-A:  0.000 fd=   0 aq=    0KB vq=    0KB sq=    0B    1.92 M-A:  0.000 fd=   0 aq=    0KB vq=    0KB sq=    0B    1.96 M-A:  0.000 fd=   0 aq=    0KB vq=    0KB sq=    0B    1.99 M-A:  0.000 fd=   0 aq=    0KB vq=    0KB sq=    0B    2.01 M-A:  0.000 fd=   0 aq=    0KB vq=    0KB sq=    0B    2.04 M-A:  0.000 fd=   0 aq=    0KB vq=    0KB sq=    0B    2.08 M-A:  0.000 fd=   0 aq=    0KB vq=    0KB sq=    0B    2.11 M-A:  0.000 fd=   0 aq=    0KB vq=    0KB sq=    0B    2.16 M-A:  0.000 fd=   0 aq=    0KB vq=    0KB sq=    0B    2.18 M-A:  0.000 fd=   0 aq=    0KB vq=    0KB sq=    0B 
ffplay version 8.0.1-essentials_build-www.gyan.dev Copyright (c) 2003-2025 the FFmpeg developers
  built with gcc 15.2.0 (Rev8, Built by MSYS2 project)
  configuration: --enable-gpl --enable-version3 --enable-static --disable-w32threads --disable-autodetect --enable-fontconfig --enable-iconv --enable-gnutls --enable-libxml2 --enable-gmp --enable-bzlib --enable-lzma --enable-zlib --enable-libsrt --enable-libssh --enable-libzmq --enable-avisynth --enable-sdl2 --enable-libwebp --enable-libx264 --enable-libx265 --enable-libxvid --enable-libaom --enable-libopenjpeg --enable-libvpx --enable-mediafoundation --enable-libass --enable-libfreetype --enable-libfribidi --enable-libharfbuzz --enable-libvidstab --enable-libvmaf --enable-libzimg --enable-amf --enable-cuda-llvm --enable-cuvid --enable-dxva2 --enable-d3d11va --enable-d3d12va --enable-ffnvcodec --enable-libvpl --enable-nvdec --enable-nvenc --enable-vaapi --enable-openal --enable-libgme --enable-libopenmpt --enable-libopencore-amrwb --enable-libmp3lame --enable-libtheora --enable-libvo-amrwbenc --enable-libgsm --enable-libopencore-amrnb --enable-libopus --enable-libspeex --enable-libvorbis --enable-librubberband
  libavutil      60.  8.100 / 60.  8.100
  libavcodec     62. 11.100 / 62. 11.100
  libavformat    62.  3.100 / 62.  3.100
  libavdevice    62.  1.100 / 62.  1.100
  libavfilter    11.  4.100 / 11.  4.100
  libswscale      9.  1.100 /  9.  1.100
  libswresample   6.  1.100 /  6.  1.100
    nan    :  0.000 fd=   0 aq=    0KB vq=    0KB sq=    0B [mp3 @ 000002623b80d440] Estimating duration from bitrate, this may be inaccurate
Input #0, mp3, from 'c:\Users\zfj-AUTHOR\Desktop\VSC\Cluster-20251215T135848Z-1-001\Cluster\controller\resource\tts_temp\tts_81d97b8db3f8467f99397c50442bd938.mp3':
  Duration: 00:00:02.23, start: 0.000000, bitrate: 48 kb/s
  Stream #0:0: Audio: mp3 (mp3float), 24000 Hz, mono, fltp, 48 kb/s
    nan M-A:    nan fd=   0 aq=    6KB vq=    0KB sq=    0B   -0.03 M-A:  0.000 fd=   0 aq=    6KB vq=    0KB sq=    0B   -0.00 M-A:  0.000 fd=   0 aq=    6KB vq=    0KB sq=    0B    0.03 M-A:  0.000 fd=   0 aq=    6KB vq=    0KB sq=    0B    0.06 M-A:  0.000 fd=   0 aq=    6KB vq=    0KB sq=    0B    0.09 M-A:  0.000 fd=   0 aq=    6KB vq=    0KB sq=    0B    0.12 M-A:  0.000 fd=   0 aq=    6KB vq=    0KB sq=    0B    0.17 M-A:  0.000 fd=   0 aq=    6KB vq=    0KB sq=    0B    0.21 M-A:  0.000 fd=   0 aq=    6KB vq=    0KB sq=    0B    0.24 M-A:  0.000 fd=   0 aq=    6KB vq=    0KB sq=    0B    0.26 M-A:  0.000 fd=   0 aq=    6KB vq=    0KB sq=    0B    0.30 M-A: -0.000 fd=   0 aq=    6KB vq=    0KB sq=    0B    0.33 M-A: -0.000 fd=   0 aq=    6KB vq=    0KB sq=    0B    0.36 M-A:  0.000 fd=   0 aq=    6KB vq=    0KB sq=    0B    0.40 M-A:  0.000 fd=   0 aq=    6KB vq=    0KB sq=    0B    0.43 M-A:  0.000 fd=   0 aq=    6KB vq=    0KB sq=    0B    0.45 M-A: -0.000 fd=   0 aq=    6KB vq=    0KB sq=    0B    0.49 M-A:  0.000 fd=   0 aq=    6KB vq=    0KB sq=    0B    0.52 M-A:  0.000 fd=   0 aq=    6KB vq=    0KB sq=    0B    0.55 M-A:  0.000 fd=   0 aq=    6KB vq=    0KB sq=    0B    0.58 M-A:  0.000 fd=   0 aq=    6KB vq=    0KB sq=    0B    0.61 M-A:  0.000 fd=   0 aq=    6KB vq=    0KB sq=    0B    0.64 M-A:  0.000 fd=   0 aq=    6KB vq=    0KB sq=    0B    0.67 M-A:  0.000 fd=   0 aq=    6KB vq=    0KB sq=    0B    0.71 M-A: -0.000 fd=   0 aq=    6KB vq=    0KB sq=    0B    0.73 M-A: -0.000 fd=   0 aq=    6KB vq=    0KB sq=    0B    0.76 M-A:  0.000 fd=   0 aq=    6KB vq=    0KB sq=    0B    0.80 M-A:  0.000 fd=   0 aq=    6KB vq=    0KB sq=    0B    0.83 M-A:  0.000 fd=   0 aq=    6KB vq=    0KB sq=    0B    0.86 M-A:  0.000 fd=   0 aq=    6KB vq=    0KB sq=    0B    0.89 M-A: -0.000 fd=   0 aq=    6KB vq=    0KB sq=    0B    0.92 M-A:  0.000 fd=   0 aq=    6KB vq=    0KB sq=    0B    0.95 M-A:  0.000 fd=   0 aq=    6KB vq=    0KB sq=    0B    0.98 M-A: -0.000 fd=   0 aq=    6KB vq=    0KB sq=    0B    1.01 M-A:  0.000 fd=   0 aq=    6KB vq=    0KB sq=    0B    1.06 M-A:  0.000 fd=   0 aq=    5KB vq=    0KB sq=    0B    1.08 M-A:  0.000 fd=   0 aq=    5KB vq=    0KB sq=    0B    1.11 M-A:  0.000 fd=   0 aq=    5KB vq=    0KB sq=    0B    1.14 M-A:  0.000 fd=   0 aq=    5KB vq=    0KB sq=    0B    1.18 M-A: -0.000 fd=   0 aq=    5KB vq=    0KB sq=    0B    1.20 M-A:  0.000 fd=   0 aq=    4KB vq=    0KB sq=    0B    1.23 M-A:  0.000 fd=   0 aq=    4KB vq=    0KB sq=    0B    1.27 M-A:  0.000 fd=   0 aq=    4KB vq=    0KB sq=    0B    1.30 M-A: -0.000 fd=   0 aq=    4KB vq=    0KB sq=    0B    1.33 M-A:  0.000 fd=   0 aq=    3KB vq=    0KB sq=    0B    1.36 M-A:  0.000 fd=   0 aq=    3KB vq=    0KB sq=    0B    1.39 M-A:  0.000 fd=   0 aq=    3KB vq=    0KB sq=    0B    1.42 M-A:  0.000 fd=   0 aq=    3KB vq=    0KB sq=    0B    1.46 M-A:  0.000 fd=   0 aq=    3KB vq=    0KB sq=    0B    1.49 M-A:  0.000 fd=   0 aq=    3KB vq=    0KB sq=    0B    1.52 M-A:  0.000 fd=   0 aq=    2KB vq=    0KB sq=    0B    1.55 M-A:  0.000 fd=   0 aq=    2KB vq=    0KB sq=    0B    1.58 M-A:  0.000 fd=   0 aq=    2KB vq=    0KB sq=    0B    1.61 M-A: -0.000 fd=   0 aq=    2KB vq=    0KB sq=    0B    1.64 M-A:  0.000 fd=   0 aq=    1KB vq=    0KB sq=    0B    1.68 M-A:  0.000 fd=   0 aq=    1KB vq=    0KB sq=    0B    1.71 M-A:  0.000 fd=   0 aq=    1KB vq=    0KB sq=    0B    1.73 M-A:  0.000 fd=   0 aq=    1KB vq=    0KB sq=    0B    1.77 M-A:  0.000 fd=   0 aq=    1KB vq=    0KB sq=    0B    1.80 M-A:  0.000 fd=   0 aq=    0KB vq=    0KB sq=    0B    1.83 M-A:  0.000 fd=   0 aq=    0KB vq=    0KB sq=    0B    1.86 M-A:  0.000 fd=   0 aq=    0KB vq=    0KB sq=    0B    1.89 M-A:  0.000 fd=   0 aq=    0KB vq=    0KB sq=    0B    1.93 M-A:  0.000 fd=   0 aq=    0KB vq=    0KB sq=    0B    1.98 M-A:  0.000 fd=   0 aq=    0KB vq=    0KB sq=    0B    2.01 M-A:  0.000 fd=   0 aq=    0KB vq=    0KB sq=    0B    2.03 M-A:  0.000 fd=   0 aq=    0KB vq=    0KB sq=    0B    2.08 M-A:  0.000 fd=   0 aq=    0KB vq=    0KB sq=    0B    2.11 M-A:  0.000 fd=   0 aq=    0KB vq=    0KB sq=    0B    2.14 M-A:  0.000 fd=   0 aq=    0KB vq=    0KB sq=    0B 
ffplay version 8.0.1-essentials_build-www.gyan.dev Copyright (c) 2003-2025 the FFmpeg developers
  built with gcc 15.2.0 (Rev8, Built by MSYS2 project)
  configuration: --enable-gpl --enable-version3 --enable-static --disable-w32threads --disable-autodetect --enable-fontconfig --enable-iconv --enable-gnutls --enable-libxml2 --enable-gmp --enable-bzlib --enable-lzma --enable-zlib --enable-libsrt --enable-libssh --enable-libzmq --enable-avisynth --enable-sdl2 --enable-libwebp --enable-libx264 --enable-libx265 --enable-libxvid --enable-libaom --enable-libopenjpeg --enable-libvpx --enable-mediafoundation --enable-libass --enable-libfreetype --enable-libfribidi --enable-libharfbuzz --enable-libvidstab --enable-libvmaf --enable-libzimg --enable-amf --enable-cuda-llvm --enable-cuvid --enable-dxva2 --enable-d3d11va --enable-d3d12va --enable-ffnvcodec --enable-libvpl --enable-nvdec --enable-nvenc --enable-vaapi --enable-openal --enable-libgme --enable-libopenmpt --enable-libopencore-amrwb --enable-libmp3lame --enable-libtheora --enable-libvo-amrwbenc --enable-libgsm --enable-libopencore-amrnb --enable-libopus --enable-libspeex --enable-libvorbis --enable-librubberband
  libavutil      60.  8.100 / 60.  8.100
  libavcodec     62. 11.100 / 62. 11.100
  libavformat    62.  3.100 / 62.  3.100
  libavdevice    62.  1.100 / 62.  1.100
  libavfilter    11.  4.100 / 11.  4.100
  libswscale      9.  1.100 /  9.  1.100
  libswresample   6.  1.100 /  6.  1.100
    nan    :  0.000 fd=   0 aq=    0KB vq=    0KB sq=    0B [mp3 @ 00000231b2a7d440] Estimating duration from bitrate, this may be inaccurate
Input #0, mp3, from 'c:\Users\zfj-AUTHOR\Desktop\VSC\Cluster-20251215T135848Z-1-001\Cluster\controller\resource\tts_temp\tts_b4645009740148ccb00aafd077835bd8.mp3':
  Duration: 00:00:02.23, start: 0.000000, bitrate: 48 kb/s
  Stream #0:0: Audio: mp3 (mp3float), 24000 Hz, mono, fltp, 48 kb/s
    nan M-A:    nan fd=   0 aq=    5KB vq=    0KB sq=    0B     nan M-A:    nan fd=   0 aq=    6KB vq=    0KB sq=    0B   -0.02 M-A: -0.000 fd=   0 aq=    6KB vq=    0KB sq=    0B    0.01 M-A:  0.000 fd=   0 aq=    6KB vq=    0KB sq=    0B    0.05 M-A:  0.000 fd=   0 aq=    6KB vq=    0KB sq=    0B    0.08 M-A:  0.000 fd=   0 aq=    6KB vq=    0KB sq=    0B    0.10 M-A: -0.000 fd=   0 aq=    6KB vq=    0KB sq=    0B    0.14 M-A: -0.000 fd=   0 aq=    6KB vq=    0KB sq=    0B    0.17 M-A:  0.000 fd=   0 aq=    6KB vq=    0KB sq=    0B    0.20 M-A:  0.000 fd=   0 aq=    6KB vq=    0KB sq=    0B    0.23 M-A:  0.000 fd=   0 aq=    6KB vq=    0KB sq=    0B    0.26 M-A: -0.000 fd=   0 aq=    6KB vq=    0KB sq=    0B    0.29 M-A: -0.000 fd=   0 aq=    6KB vq=    0KB sq=    0B    0.32 M-A: -0.000 fd=   0 aq=    6KB vq=    0KB sq=    0B    0.36 M-A:  0.000 fd=   0 aq=    6KB vq=    0KB sq=    0B    0.40 M-A:  0.000 fd=   0 aq=    6KB vq=    0KB sq=    0B    0.43 M-A:  0.000 fd=   0 aq=    6KB vq=    0KB sq=    0B    0.46 M-A:  0.000 fd=   0 aq=    6KB vq=    0KB sq=    0B    0.49 M-A:  0.000 fd=   0 aq=    6KB vq=    0KB sq=    0B    0.52 M-A:  0.000 fd=   0 aq=    6KB vq=    0KB sq=    0B    0.56 M-A: -0.000 fd=   0 aq=    6KB vq=    0KB sq=    0B    0.58 M-A: -0.000 fd=   0 aq=    6KB vq=    0KB sq=    0B    0.62 M-A:  0.000 fd=   0 aq=    6KB vq=    0KB sq=    0B    0.65 M-A:  0.000 fd=   0 aq=    6KB vq=    0KB sq=    0B    0.68 M-A: -0.000 fd=   0 aq=    6KB vq=    0KB sq=    0B    0.72 M-A:  0.000 fd=   0 aq=    6KB vq=    0KB sq=    0B    0.74 M-A:  0.000 fd=   0 aq=    6KB vq=    0KB sq=    0B    0.77 M-A:  0.000 fd=   0 aq=    6KB vq=    0KB sq=    0B    0.80 M-A:  0.000 fd=   0 aq=    6KB vq=    0KB sq=    0B    0.84 M-A:  0.000 fd=   0 aq=    6KB vq=    0KB sq=    0B    0.87 M-A: -0.000 fd=   0 aq=    6KB vq=    0KB sq=    0B    0.90 M-A:  0.000 fd=   0 aq=    6KB vq=    0KB sq=    0B    0.93 M-A:  0.000 fd=   0 aq=    6KB vq=    0KB sq=    0B    0.96 M-A:  0.000 fd=   0 aq=    6KB vq=    0KB sq=    0B    1.00 M-A:  0.000 fd=   0 aq=    6KB vq=    0KB sq=    0B    1.03 M-A:  0.000 fd=   0 aq=    5KB vq=    0KB sq=    0B    1.06 M-A:  0.000 fd=   0 aq=    5KB vq=    0KB sq=    0B    1.09 M-A:  0.000 fd=   0 aq=    5KB vq=    0KB sq=    0B    1.12 M-A:  0.000 fd=   0 aq=    5KB vq=    0KB sq=    0B    1.16 M-A:  0.000 fd=   0 aq=    5KB vq=    0KB sq=    0B    1.19 M-A: -0.000 fd=   0 aq=    5KB vq=    0KB sq=    0B    1.21 M-A: -0.000 fd=   0 aq=    4KB vq=    0KB sq=    0B    1.24 M-A:  0.000 fd=   0 aq=    4KB vq=    0KB sq=    0B    1.27 M-A:  0.000 fd=   0 aq=    4KB vq=    0KB sq=    0B    1.31 M-A: -0.000 fd=   0 aq=    4KB vq=    0KB sq=    0B    1.34 M-A:  0.000 fd=   0 aq=    3KB vq=    0KB sq=    0B    1.37 M-A:  0.000 fd=   0 aq=    3KB vq=    0KB sq=    0B    1.40 M-A:  0.000 fd=   0 aq=    3KB vq=    0KB sq=    0B    1.43 M-A:  0.000 fd=   0 aq=    3KB vq=    0KB sq=    0B    1.47 M-A: -0.000 fd=   0 aq=    3KB vq=    0KB sq=    0B    1.50 M-A:  0.000 fd=   0 aq=    2KB vq=    0KB sq=    0B    1.53 M-A:  0.000 fd=   0 aq=    2KB vq=    0KB sq=    0B    1.56 M-A: -0.000 fd=   0 aq=    2KB vq=    0KB sq=    0B    1.59 M-A: -0.000 fd=   0 aq=    2KB vq=    0KB sq=    0B    1.63 M-A:  0.000 fd=   0 aq=    1KB vq=    0KB sq=    0B    1.66 M-A:  0.000 fd=   0 aq=    1KB vq=    0KB sq=    0B    1.70 M-A:  0.000 fd=   0 aq=    1KB vq=    0KB sq=    0B    1.72 M-A:  0.000 fd=   0 aq=    1KB vq=    0KB sq=    0B    1.76 M-A:  0.000 fd=   0 aq=    1KB vq=    0KB sq=    0B    1.79 M-A:  0.000 fd=   0 aq=    1KB vq=    0KB sq=    0B    1.82 M-A:  0.000 fd=   0 aq=    0KB vq=    0KB sq=    0B    1.84 M-A:  0.000 fd=   0 aq=    0KB vq=    0KB sq=    0B    1.88 M-A:  0.000 fd=   0 aq=    0KB vq=    0KB sq=    0B    1.91 M-A:  0.000 fd=   0 aq=    0KB vq=    0KB sq=    0B    1.94 M-A:  0.000 fd=   0 aq=    0KB vq=    0KB sq=    0B    1.98 M-A: -0.000 fd=   0 aq=    0KB vq=    0KB sq=    0B    2.01 M-A:  0.000 fd=   0 aq=    0KB vq=    0KB sq=    0B    2.03 M-A:  0.000 fd=   0 aq=    0KB vq=    0KB sq=    0B    2.07 M-A: -0.000 fd=   0 aq=    0KB vq=    0KB sq=    0B    2.10 M-A: -0.000 fd=   0 aq=    0KB vq=    0KB sq=    0B    2.14 M-A: -0.000 fd=   0 aq=    0KB vq=    0KB sq=    0B 
ffplay version 8.0.1-essentials_build-www.gyan.dev Copyright (c) 2003-2025 the FFmpeg developers
  built with gcc 15.2.0 (Rev8, Built by MSYS2 project)
  configuration: --enable-gpl --enable-version3 --enable-static --disable-w32threads --disable-autodetect --enable-fontconfig --enable-iconv --enable-gnutls --enable-libxml2 --enable-gmp --enable-bzlib --enable-lzma --enable-zlib --enable-libsrt --enable-libssh --enable-libzmq --enable-avisynth --enable-sdl2 --enable-libwebp --enable-libx264 --enable-libx265 --enable-libxvid --enable-libaom --enable-libopenjpeg --enable-libvpx --enable-mediafoundation --enable-libass --enable-libfreetype --enable-libfribidi --enable-libharfbuzz --enable-libvidstab --enable-libvmaf --enable-libzimg --enable-amf --enable-cuda-llvm --enable-cuvid --enable-dxva2 --enable-d3d11va --enable-d3d12va --enable-ffnvcodec --enable-libvpl --enable-nvdec --enable-nvenc --enable-vaapi --enable-openal --enable-libgme --enable-libopenmpt --enable-libopencore-amrwb --enable-libmp3lame --enable-libtheora --enable-libvo-amrwbenc --enable-libgsm --enable-libopencore-amrnb --enable-libopus --enable-libspeex --enable-libvorbis --enable-librubberband
  libavutil      60.  8.100 / 60.  8.100
  libavcodec     62. 11.100 / 62. 11.100
  libavformat    62.  3.100 / 62.  3.100
  libavdevice    62.  1.100 / 62.  1.100
  libavfilter    11.  4.100 / 11.  4.100
  libswscale      9.  1.100 /  9.  1.100
  libswresample   6.  1.100 /  6.  1.100
    nan    :  0.000 fd=   0 aq=    0KB vq=    0KB sq=    0B [mp3 @ 00000203ff11d440] Estimating duration from bitrate, this may be inaccurate
Input #0, mp3, from 'c:\Users\zfj-AUTHOR\Desktop\VSC\Cluster-20251215T135848Z-1-001\Cluster\controller\resource\tts_temp\tts_620f77f9ea494b73966412f555bb71bf.mp3':
  Duration: 00:00:02.23, start: 0.000000, bitrate: 48 kb/s
  Stream #0:0: Audio: mp3 (mp3float), 24000 Hz, mono, fltp, 48 kb/s
    nan M-A:    nan fd=   0 aq=    5KB vq=    0KB sq=    0B     nan M-A:    nan fd=   0 aq=    6KB vq=    0KB sq=    0B   -0.02 M-A:  0.000 fd=   0 aq=    6KB vq=    0KB sq=    0B    0.02 M-A:  0.000 fd=   0 aq=    6KB vq=    0KB sq=    0B    0.05 M-A:  0.000 fd=   0 aq=    6KB vq=    0KB sq=    0B    0.08 M-A:  0.000 fd=   0 aq=    6KB vq=    0KB sq=    0B    0.11 M-A:  0.000 fd=   0 aq=    6KB vq=    0KB sq=    0B    0.14 M-A:  0.000 fd=   0 aq=    6KB vq=    0KB sq=    0B    0.18 M-A:  0.000 fd=   0 aq=    6KB vq=    0KB sq=    0B    0.21 M-A:  0.000 fd=   0 aq=    6KB vq=    0KB sq=    0B    0.24 M-A: -0.000 fd=   0 aq=    6KB vq=    0KB sq=    0B    0.27 M-A: -0.000 fd=   0 aq=    6KB vq=    0KB sq=    0B    0.30 M-A:  0.000 fd=   0 aq=    6KB vq=    0KB sq=    0B    0.33 M-A: -0.000 fd=   0 aq=    6KB vq=    0KB sq=    0B    0.37 M-A:  0.000 fd=   0 aq=    6KB vq=    0KB sq=    0B    0.41 M-A:  0.000 fd=   0 aq=    6KB vq=    0KB sq=    0B    0.44 M-A:  0.000 fd=   0 aq=    6KB vq=    0KB sq=    0B    0.47 M-A:  0.000 fd=   0 aq=    6KB vq=    0KB sq=    0B    0.50 M-A:  0.000 fd=   0 aq=    6KB vq=    0KB sq=    0B    0.54 M-A:  0.000 fd=   0 aq=    6KB vq=    0KB sq=    0B    0.56 M-A:  0.000 fd=   0 aq=    6KB vq=    0KB sq=    0B    0.59 M-A:  0.000 fd=   0 aq=    6KB vq=    0KB sq=    0B    0.62 M-A:  0.000 fd=   0 aq=    6KB vq=    0KB sq=    0B    0.66 M-A:  0.000 fd=   0 aq=    6KB vq=    0KB sq=    0B    0.69 M-A: -0.000 fd=   0 aq=    6KB vq=    0KB sq=    0B    0.72 M-A: -0.000 fd=   0 aq=    6KB vq=    0KB sq=    0B    0.75 M-A:  0.000 fd=   0 aq=    6KB vq=    0KB sq=    0B    0.78 M-A: -0.000 fd=   0 aq=    6KB vq=    0KB sq=    0B    0.81 M-A:  0.000 fd=   0 aq=    6KB vq=    0KB sq=    0B    0.85 M-A:  0.000 fd=   0 aq=    6KB vq=    0KB sq=    0B    0.88 M-A:  0.000 fd=   0 aq=    6KB vq=    0KB sq=    0B    0.91 M-A:  0.000 fd=   0 aq=    6KB vq=    0KB sq=    0B    0.94 M-A: -0.000 fd=   0 aq=    6KB vq=    0KB sq=    0B    0.97 M-A:  0.000 fd=   0 aq=    6KB vq=    0KB sq=    0B    1.01 M-A: -0.000 fd=   0 aq=    6KB vq=    0KB sq=    0B    1.04 M-A: -0.000 fd=   0 aq=    5KB vq=    0KB sq=    0B    1.07 M-A:  0.000 fd=   0 aq=    5KB vq=    0KB sq=    0B    1.10 M-A:  0.000 fd=   0 aq=    5KB vq=    0KB sq=    0B    1.13 M-A:  0.000 fd=   0 aq=    5KB vq=    0KB sq=    0B    1.16 M-A:  0.000 fd=   0 aq=    5KB vq=    0KB sq=    0B    1.19 M-A:  0.000 fd=   0 aq=    5KB vq=    0KB sq=    0B    1.22 M-A: -0.000 fd=   0 aq=    4KB vq=    0KB sq=    0B    1.25 M-A: -0.000 fd=   0 aq=    4KB vq=    0KB sq=    0B    1.29 M-A:  0.000 fd=   0 aq=    4KB vq=    0KB sq=    0B    1.32 M-A:  0.000 fd=   0 aq=    4KB vq=    0KB sq=    0B    1.35 M-A:  0.000 fd=   0 aq=    3KB vq=    0KB sq=    0B    1.38 M-A: -0.000 fd=   0 aq=    3KB vq=    0KB sq=    0B    1.41 M-A:  0.000 fd=   0 aq=    3KB vq=    0KB sq=    0B    1.44 M-A:  0.000 fd=   0 aq=    3KB vq=    0KB sq=    0B    1.48 M-A: -0.000 fd=   0 aq=    3KB vq=    0KB sq=    0B    1.51 M-A:  0.000 fd=   0 aq=    2KB vq=    0KB sq=    0B    1.54 M-A: -0.000 fd=   0 aq=    2KB vq=    0KB sq=    0B    1.56 M-A:  0.000 fd=   0 aq=    2KB vq=    0KB sq=    0B    1.60 M-A:  0.000 fd=   0 aq=    2KB vq=    0KB sq=    0B    1.63 M-A: -0.000 fd=   0 aq=    1KB vq=    0KB sq=    0B    1.67 M-A:  0.000 fd=   0 aq=    1KB vq=    0KB sq=    0B    1.70 M-A:  0.000 fd=   0 aq=    1KB vq=    0KB sq=    0B    1.72 M-A:  0.000 fd=   0 aq=    1KB vq=    0KB sq=    0B    1.76 M-A:  0.000 fd=   0 aq=    1KB vq=    0KB sq=    0B    1.79 M-A:  0.000 fd=   0 aq=    1KB vq=    0KB sq=    0B    1.82 M-A:  0.000 fd=   0 aq=    0KB vq=    0KB sq=    0B    1.84 M-A:  0.000 fd=   0 aq=    0KB vq=    0KB sq=    0B    1.87 M-A:  0.000 fd=   0 aq=    0KB vq=    0KB sq=    0B    1.91 M-A:  0.000 fd=   0 aq=    0KB vq=    0KB sq=    0B    1.94 M-A:  0.000 fd=   0 aq=    0KB vq=    0KB sq=    0B    1.98 M-A:  0.000 fd=   0 aq=    0KB vq=    0KB sq=    0B    2.01 M-A:  0.000 fd=   0 aq=    0KB vq=    0KB sq=    0B    2.03 M-A: -0.000 fd=   0 aq=    0KB vq=    0KB sq=    0B    2.07 M-A:  0.000 fd=   0 aq=    0KB vq=    0KB sq=    0B    2.10 M-A:  0.000 fd=   0 aq=    0KB vq=    0KB sq=    0B    2.13 M-A:  0.000 fd=   0 aq=    0KB vq=    0KB sq=    0B 
ffplay version 8.0.1-essentials_build-www.gyan.dev Copyright (c) 2003-2025 the FFmpeg developers
  built with gcc 15.2.0 (Rev8, Built by MSYS2 project)
  configuration: --enable-gpl --enable-version3 --enable-static --disable-w32threads --disable-autodetect --enable-fontconfig --enable-iconv --enable-gnutls --enable-libxml2 --enable-gmp --enable-bzlib --enable-lzma --enable-zlib --enable-libsrt --enable-libssh --enable-libzmq --enable-avisynth --enable-sdl2 --enable-libwebp --enable-libx264 --enable-libx265 --enable-libxvid --enable-libaom --enable-libopenjpeg --enable-libvpx --enable-mediafoundation --enable-libass --enable-libfreetype --enable-libfribidi --enable-libharfbuzz --enable-libvidstab --enable-libvmaf --enable-libzimg --enable-amf --enable-cuda-llvm --enable-cuvid --enable-dxva2 --enable-d3d11va --enable-d3d12va --enable-ffnvcodec --enable-libvpl --enable-nvdec --enable-nvenc --enable-vaapi --enable-openal --enable-libgme --enable-libopenmpt --enable-libopencore-amrwb --enable-libmp3lame --enable-libtheora --enable-libvo-amrwbenc --enable-libgsm --enable-libopencore-amrnb --enable-libopus --enable-libspeex --enable-libvorbis --enable-librubberband
  libavutil      60.  8.100 / 60.  8.100
  libavcodec     62. 11.100 / 62. 11.100
  libavformat    62.  3.100 / 62.  3.100
  libavdevice    62.  1.100 / 62.  1.100
  libavfilter    11.  4.100 / 11.  4.100
  libswscale      9.  1.100 /  9.  1.100
  libswresample   6.  1.100 /  6.  1.100
    nan    :  0.000 fd=   0 aq=    0KB vq=    0KB sq=    0B [mp3 @ 0000026eda7dd440] Estimating duration from bitrate, this may be inaccurate
Input #0, mp3, from 'c:\Users\zfj-AUTHOR\Desktop\VSC\Cluster-20251215T135848Z-1-001\Cluster\controller\resource\tts_temp\tts_5000df391dee4d268454d7b8226413a8.mp3':
  Duration: 00:00:02.23, start: 0.000000, bitrate: 48 kb/s
  Stream #0:0: Audio: mp3 (mp3float), 24000 Hz, mono, fltp, 48 kb/s
    nan M-A:    nan fd=   0 aq=    5KB vq=    0KB sq=    0B     nan M-A:    nan fd=   0 aq=    6KB vq=    0KB sq=    0B   -0.02 M-A:  0.000 fd=   0 aq=    6KB vq=    0KB sq=    0B    0.02 M-A: -0.000 fd=   0 aq=    6KB vq=    0KB sq=    0B    0.05 M-A:  0.000 fd=   0 aq=    6KB vq=    0KB sq=    0B    0.08 M-A:  0.000 fd=   0 aq=    6KB vq=    0KB sq=    0B    0.10 M-A:  0.000 fd=   0 aq=    6KB vq=    0KB sq=    0B    0.14 M-A:  0.000 fd=   0 aq=    6KB vq=    0KB sq=    0B    0.17 M-A:  0.000 fd=   0 aq=    6KB vq=    0KB sq=    0B    0.20 M-A:  0.000 fd=   0 aq=    6KB vq=    0KB sq=    0B    0.24 M-A:  0.000 fd=   0 aq=    6KB vq=    0KB sq=    0B    0.26 M-A:  0.000 fd=   0 aq=    6KB vq=    0KB sq=    0B    0.29 M-A:  0.000 fd=   0 aq=    6KB vq=    0KB sq=    0B    0.33 M-A:  0.000 fd=   0 aq=    6KB vq=    0KB sq=    0B    0.36 M-A:  0.000 fd=   0 aq=    6KB vq=    0KB sq=    0B    0.40 M-A:  0.000 fd=   0 aq=    6KB vq=    0KB sq=    0B    0.43 M-A:  0.000 fd=   0 aq=    6KB vq=    0KB sq=    0B    0.45 M-A:  0.000 fd=   0 aq=    6KB vq=    0KB sq=    0B    0.49 M-A:  0.000 fd=   0 aq=    6KB vq=    0KB sq=    0B    0.52 M-A:  0.000 fd=   0 aq=    6KB vq=    0KB sq=    0B    0.55 M-A:  0.000 fd=   0 aq=    6KB vq=    0KB sq=    0B    0.58 M-A:  0.000 fd=   0 aq=    6KB vq=    0KB sq=    0B    0.61 M-A:  0.000 fd=   0 aq=    6KB vq=    0KB sq=    0B    0.65 M-A:  0.000 fd=   0 aq=    6KB vq=    0KB sq=    0B    0.68 M-A:  0.000 fd=   0 aq=    6KB vq=    0KB sq=    0B    0.72 M-A:  0.000 fd=   0 aq=    6KB vq=    0KB sq=    0B    0.75 M-A:  0.000 fd=   0 aq=    6KB vq=    0KB sq=    0B    0.78 M-A:  0.000 fd=   0 aq=    6KB vq=    0KB sq=    0B    0.82 M-A: -0.000 fd=   0 aq=    6KB vq=    0KB sq=    0B    0.85 M-A:  0.000 fd=   0 aq=    6KB vq=    0KB sq=    0B    0.88 M-A:  0.000 fd=   0 aq=    6KB vq=    0KB sq=    0B    0.91 M-A:  0.000 fd=   0 aq=    6KB vq=    0KB sq=    0B    0.94 M-A:  0.000 fd=   0 aq=    6KB vq=    0KB sq=    0B    0.98 M-A: -0.000 fd=   0 aq=    6KB vq=    0KB sq=    0B    1.02 M-A:  0.000 fd=   0 aq=    6KB vq=    0KB sq=    0B    1.05 M-A:  0.000 fd=   0 aq=    5KB vq=    0KB sq=    0B    1.07 M-A: -0.000 fd=   0 aq=    5KB vq=    0KB sq=    0B    1.10 M-A: -0.000 fd=   0 aq=    5KB vq=    0KB sq=    0B    1.14 M-A:  0.000 fd=   0 aq=    5KB vq=    0KB sq=    0B    1.17 M-A:  0.000 fd=   0 aq=    5KB vq=    0KB sq=    0B    1.20 M-A:  0.000 fd=   0 aq=    4KB vq=    0KB sq=    0B    1.24 M-A:  0.000 fd=   0 aq=    4KB vq=    0KB sq=    0B    1.27 M-A:  0.000 fd=   0 aq=    4KB vq=    0KB sq=    0B    1.30 M-A:  0.000 fd=   0 aq=    4KB vq=    0KB sq=    0B    1.33 M-A:  0.000 fd=   0 aq=    3KB vq=    0KB sq=    0B    1.36 M-A:  0.000 fd=   0 aq=    3KB vq=    0KB sq=    0B    1.39 M-A: -0.000 fd=   0 aq=    3KB vq=    0KB sq=    0B    1.42 M-A:  0.000 fd=   0 aq=    3KB vq=    0KB sq=    0B    1.45 M-A:  0.000 fd=   0 aq=    3KB vq=    0KB sq=    0B    1.48 M-A:  0.000 fd=   0 aq=    3KB vq=    0KB sq=    0B    1.52 M-A: -0.000 fd=   0 aq=    2KB vq=    0KB sq=    0B    1.54 M-A:  0.000 fd=   0 aq=    2KB vq=    0KB sq=    0B    1.57 M-A:  0.000 fd=   0 aq=    2KB vq=    0KB sq=    0B    1.61 M-A:  0.000 fd=   0 aq=    2KB vq=    0KB sq=    0B    1.64 M-A:  0.000 fd=   0 aq=    1KB vq=    0KB sq=    0B    1.68 M-A:  0.000 fd=   0 aq=    1KB vq=    0KB sq=    0B    1.71 M-A: -0.000 fd=   0 aq=    1KB vq=    0KB sq=    0B    1.73 M-A:  0.000 fd=   0 aq=    1KB vq=    0KB sq=    0B    1.77 M-A:  0.000 fd=   0 aq=    1KB vq=    0KB sq=    0B    1.80 M-A:  0.000 fd=   0 aq=    0KB vq=    0KB sq=    0B    1.84 M-A:  0.000 fd=   0 aq=    0KB vq=    0KB sq=    0B    1.86 M-A:  0.000 fd=   0 aq=    0KB vq=    0KB sq=    0B    1.89 M-A:  0.000 fd=   0 aq=    0KB vq=    0KB sq=    0B    1.93 M-A:  0.000 fd=   0 aq=    0KB vq=    0KB sq=    0B    1.96 M-A:  0.000 fd=   0 aq=    0KB vq=    0KB sq=    0B    1.99 M-A:  0.000 fd=   0 aq=    0KB vq=    0KB sq=    0B    2.02 M-A:  0.000 fd=   0 aq=    0KB vq=    0KB sq=    0B    2.05 M-A:  0.000 fd=   0 aq=    0KB vq=    0KB sq=    0B    2.08 M-A:  0.000 fd=   0 aq=    0KB vq=    0KB sq=    0B    2.12 M-A:  0.000 fd=   0 aq=    0KB vq=    0KB sq=    0B    2.15 M-A:  0.000 fd=   0 aq=    0KB vq=    0KB sq=    0B 
ffplay version 8.0.1-essentials_build-www.gyan.dev Copyright (c) 2003-2025 the FFmpeg developers
  built with gcc 15.2.0 (Rev8, Built by MSYS2 project)
  configuration: --enable-gpl --enable-version3 --enable-static --disable-w32threads --disable-autodetect --enable-fontconfig --enable-iconv --enable-gnutls --enable-libxml2 --enable-gmp --enable-bzlib --enable-lzma --enable-zlib --enable-libsrt --enable-libssh --enable-libzmq --enable-avisynth --enable-sdl2 --enable-libwebp --enable-libx264 --enable-libx265 --enable-libxvid --enable-libaom --enable-libopenjpeg --enable-libvpx --enable-mediafoundation --enable-libass --enable-libfreetype --enable-libfribidi --enable-libharfbuzz --enable-libvidstab --enable-libvmaf --enable-libzimg --enable-amf --enable-cuda-llvm --enable-cuvid --enable-dxva2 --enable-d3d11va --enable-d3d12va --enable-ffnvcodec --enable-libvpl --enable-nvdec --enable-nvenc --enable-vaapi --enable-openal --enable-libgme --enable-libopenmpt --enable-libopencore-amrwb --enable-libmp3lame --enable-libtheora --enable-libvo-amrwbenc --enable-libgsm --enable-libopencore-amrnb --enable-libopus --enable-libspeex --enable-libvorbis --enable-librubberband
  libavutil      60.  8.100 / 60.  8.100
  libavcodec     62. 11.100 / 62. 11.100
  libavformat    62.  3.100 / 62.  3.100
  libavdevice    62.  1.100 / 62.  1.100
  libavfilter    11.  4.100 / 11.  4.100
  libswscale      9.  1.100 /  9.  1.100
  libswresample   6.  1.100 /  6.  1.100
    nan    :  0.000 fd=   0 aq=    0KB vq=    0KB sq=    0B [mp3 @ 000002a2ff7bd440] Estimating duration from bitrate, this may be inaccurate
Input #0, mp3, from 'c:\Users\zfj-AUTHOR\Desktop\VSC\Cluster-20251215T135848Z-1-001\Cluster\controller\resource\tts_temp\tts_721cc76abcb34f12b51b604624ff1a9d.mp3':
  Duration: 00:00:02.23, start: 0.000000, bitrate: 48 kb/s
  Stream #0:0: Audio: mp3 (mp3float), 24000 Hz, mono, fltp, 48 kb/s
    nan M-A:    nan fd=   0 aq=    5KB vq=    0KB sq=    0B     nan M-A:    nan fd=   0 aq=    6KB vq=    0KB sq=    0B   -0.02 M-A:  0.000 fd=   0 aq=    6KB vq=    0KB sq=    0B    0.02 M-A: -0.000 fd=   0 aq=    6KB vq=    0KB sq=    0B    0.05 M-A: -0.000 fd=   0 aq=    6KB vq=    0KB sq=    0B    0.09 M-A:  0.000 fd=   0 aq=    6KB vq=    0KB sq=    0B    0.12 M-A: -0.000 fd=   0 aq=    6KB vq=    0KB sq=    0B    0.15 M-A:  0.000 fd=   0 aq=    6KB vq=    0KB sq=    0B    0.19 M-A:  0.000 fd=   0 aq=    6KB vq=    0KB sq=    0B    0.22 M-A: -0.000 fd=   0 aq=    6KB vq=    0KB sq=    0B    0.25 M-A:  0.000 fd=   0 aq=    6KB vq=    0KB sq=    0B    0.28 M-A:  0.000 fd=   0 aq=    6KB vq=    0KB sq=    0B    0.31 M-A: -0.000 fd=   0 aq=    6KB vq=    0KB sq=    0B    0.34 M-A: -0.000 fd=   0 aq=    6KB vq=    0KB sq=    0B    0.38 M-A: -0.000 fd=   0 aq=    6KB vq=    0KB sq=    0B    0.41 M-A:  0.000 fd=   0 aq=    6KB vq=    0KB sq=    0B    0.43 M-A:  0.000 fd=   0 aq=    6KB vq=    0KB sq=    0B    0.47 M-A: -0.000 fd=   0 aq=    6KB vq=    0KB sq=    0B    0.50 M-A:  0.000 fd=   0 aq=    6KB vq=    0KB sq=    0B    0.53 M-A:  0.000 fd=   0 aq=    6KB vq=    0KB sq=    0B    0.56 M-A:  0.000 fd=   0 aq=    6KB vq=    0KB sq=    0B    0.59 M-A:  0.000 fd=   0 aq=    6KB vq=    0KB sq=    0B    0.62 M-A:  0.000 fd=   0 aq=    6KB vq=    0KB sq=    0B    0.66 M-A:  0.000 fd=   0 aq=    6KB vq=    0KB sq=    0B    0.69 M-A:  0.000 fd=   0 aq=    6KB vq=    0KB sq=    0B    0.72 M-A:  0.000 fd=   0 aq=    6KB vq=    0KB sq=    0B    0.75 M-A:  0.000 fd=   0 aq=    6KB vq=    0KB sq=    0B    0.78 M-A:  0.000 fd=   0 aq=    6KB vq=    0KB sq=    0B    0.83 M-A:  0.000 fd=   0 aq=    6KB vq=    0KB sq=    0B    0.86 M-A:  0.000 fd=   0 aq=    6KB vq=    0KB sq=    0B    0.89 M-A:  0.000 fd=   0 aq=    6KB vq=    0KB sq=    0B    0.92 M-A:  0.000 fd=   0 aq=    6KB vq=    0KB sq=    0B    0.95 M-A:  0.000 fd=   0 aq=    6KB vq=    0KB sq=    0B    0.99 M-A: -0.000 fd=   0 aq=    6KB vq=    0KB sq=    0B    1.02 M-A:  0.000 fd=   0 aq=    6KB vq=    0KB sq=    0B    1.05 M-A:  0.000 fd=   0 aq=    5KB vq=    0KB sq=    0B    1.07 M-A:  0.000 fd=   0 aq=    5KB vq=    0KB sq=    0B    1.11 M-A:  0.000 fd=   0 aq=    5KB vq=    0KB sq=    0B    1.14 M-A:  0.000 fd=   0 aq=    5KB vq=    0KB sq=    0B    1.18 M-A:  0.000 fd=   0 aq=    5KB vq=    0KB sq=    0B    1.20 M-A:  0.000 fd=   0 aq=    4KB vq=    0KB sq=    0B    1.23 M-A:  0.000 fd=   0 aq=    4KB vq=    0KB sq=    0B    1.27 M-A:  0.000 fd=   0 aq=    4KB vq=    0KB sq=    0B    1.30 M-A: -0.000 fd=   0 aq=    4KB vq=    0KB sq=    0B    1.35 M-A:  0.000 fd=   0 aq=    3KB vq=    0KB sq=    0B    1.37 M-A: -0.000 fd=   0 aq=    3KB vq=    0KB sq=    0B    1.40 M-A:  0.000 fd=   0 aq=    3KB vq=    0KB sq=    0B    1.46 M-A:  0.000 fd=   0 aq=    3KB vq=    0KB sq=    0B    1.49 M-A:  0.000 fd=   0 aq=    3KB vq=    0KB sq=    0B    1.52 M-A: -0.000 fd=   0 aq=    2KB vq=    0KB sq=    0B    1.54 M-A: -0.000 fd=   0 aq=    2KB vq=    0KB sq=    0B    1.58 M-A:  0.000 fd=   0 aq=    2KB vq=    0KB sq=    0B    1.61 M-A:  0.000 fd=   0 aq=    2KB vq=    0KB sq=    0B 